# xmcd
#
# Track frame offsets:
#	150
#	12625
#	22797
#	34866
#	47000
#	60589
#	72591
#	83630
#	94384
#	105761
#	114356
#	124733
#
# Disc length: 1801 seconds
#
# Revision: 1
# Processed by: cddbd v1.5.1PL0 Copyright (c) Steve Scherf et al.
# Submitted via: audiograbber 1.83.01
#
DISCID=9207070c
DTITLE=Red Sovine - Closing Time Til Dawn
DYEAR=1900
DGENRE=
TTITLE0=Whiskey Flavored Kisses
TTITLE1=Father Of Judy Ann
TTITLE2=Tear Stained Guitar
TTITLE3=Old Faithful
TTITLE4=Blues Stay Away From Me
TTITLE5=Three Hearts In A Tangle
TTITLE6=Normally Norma Loves Me
TTITLE7=Fugitive Of Love
TTITLE8=Livin'
TTITLE9=Closing Time Til Dawn
TTITLE10=I'll Sail My Ship Alone
TTITLE11=Live And Let Live And Be Happy
EXTD=
EXTT0=
EXTT1=
EXTT2=
EXTT3=
EXTT4=
EXTT5=
EXTT6=
EXTT7=
EXTT8=
EXTT9=
EXTT10=
EXTT11=
PLAYORDER=
